<svg xmlns="http://www.w3.org/2000/svg" viewBox="0 0 800 200" width="800" height="200">
  <title>MacPacker Full Logo</title>
  <!-- Icon -->
  <g transform="translate(10, 20) scale(0.59)">
    <rect width="272" height="272" rx="52" ry="52" fill="#f5f5f5"/>
    <g transform="translate(32, 64)">
      <path d="M0,145 L0,0 L36,0 L70,70 L103,0 L139,0 L139,145 L107,145 L107,58 L76,124 L63,124 L32,58 L32,145 Z" fill="#3a3a3a"/>
      <path d="M99,145 L99,0 L166,0 C195,0 214,22 214,53 C214,85 195,107 166,107 L134,107 L134,145 Z M134,30 L134,78 L160,78 C176,78 185,68 185,53 C185,39 176,30 160,30 Z" fill="#2185D0"/>
    </g>
  </g>
  <!-- Text -->
  <text x="195" y="132" font-family="-apple-system, BlinkMacSystemFont, 'Segoe UI', Roboto, Helvetica, Arial, sans-serif" font-size="72" font-weight="700" fill="#1a1a1a">MacPacker</text>
</svg>
