<svg xmlns="http://www.w3.org/2000/svg" viewBox="0 0 512 512" width="512" height="512">
  <title>MacPacker Logo Icon</title>
  <rect width="512" height="512" rx="96" ry="96" fill="#f5f5f5"/>
  <g transform="translate(60, 120)">
    <!-- M letterform (dark charcoal, behind P) -->
    <path d="M0,272 L0,0 L68,0 L130,130 L192,0 L260,0 L260,272 L200,272 L200,110 L142,232 L118,232 L60,110 L60,272 Z" fill="#3a3a3a"/>
    <!-- P letterform (blue, overlapping M) -->
    <path d="M185,272 L185,0 L310,0 C365,0 400,42 400,100 C400,158 365,200 310,200 L250,200 L250,272 Z M250,56 L250,146 L300,146 C328,146 345,128 345,100 C345,72 328,56 300,56 Z" fill="#2185D0"/>
  </g>
</svg>
